<svg xmlns="http://www.w3.org/2000/svg" width="640" height="360" viewBox="0 0 640 360">
  <defs>
    <linearGradient id="mapBg" x1="0%" y1="0%" x2="100%" y2="100%">
      <stop offset="0%" style="stop-color:#1a1a2e;stop-opacity:1" />
      <stop offset="100%" style="stop-color:#16213e;stop-opacity:1" />
    </linearGradient>
    <linearGradient id="mapAccent" x1="0%" y1="0%" x2="100%" y2="0%">
      <stop offset="0%" style="stop-color:#6366f1;stop-opacity:1" />
      <stop offset="100%" style="stop-color:#8b5cf6;stop-opacity:1" />
    </linearGradient>
  </defs>
  <rect width="640" height="360" fill="url(#mapBg)"/>

  <!-- Grid pattern for map feel -->
  <g stroke="#6366f1" stroke-width="0.5" opacity="0.2">
    <line x1="0" y1="60" x2="640" y2="60"/>
    <line x1="0" y1="120" x2="640" y2="120"/>
    <line x1="0" y1="180" x2="640" y2="180"/>
    <line x1="0" y1="240" x2="640" y2="240"/>
    <line x1="0" y1="300" x2="640" y2="300"/>
    <line x1="106" y1="0" x2="106" y2="360"/>
    <line x1="213" y1="0" x2="213" y2="360"/>
    <line x1="320" y1="0" x2="320" y2="360"/>
    <line x1="426" y1="0" x2="426" y2="360"/>
    <line x1="533" y1="0" x2="533" y2="360"/>
  </g>

  <!-- Roads -->
  <g stroke="#374151" stroke-width="8" stroke-linecap="round">
    <line x1="100" y1="180" x2="540" y2="180"/>
    <line x1="320" y1="50" x2="320" y2="310"/>
    <line x1="150" y1="100" x2="490" y2="260"/>
  </g>

  <!-- Location pin -->
  <g transform="translate(320, 150)">
    <ellipse cx="0" cy="35" rx="15" ry="5" fill="#6366f1" opacity="0.3"/>
    <path d="M0 -30 C-20 -30 -30 -10 -30 10 C-30 30 0 50 0 50 C0 50 30 30 30 10 C30 -10 20 -30 0 -30 Z" fill="url(#mapAccent)"/>
    <circle cx="0" cy="0" r="10" fill="#1a1a2e"/>
  </g>

  <text x="320" y="320" font-family="system-ui, sans-serif" font-size="14" fill="#a5b4fc" text-anchor="middle" opacity="0.7">Business Location - Replace with Google Maps screenshot</text>
</svg>