<svg xmlns="http://www.w3.org/2000/svg" width="640" height="360" viewBox="0 0 640 360">
  <defs>
    <linearGradient id="areaBg" x1="0%" y1="0%" x2="100%" y2="100%">
      <stop offset="0%" style="stop-color:#1a1a2e;stop-opacity:1" />
      <stop offset="100%" style="stop-color:#16213e;stop-opacity:1" />
    </linearGradient>
    <linearGradient id="areaAccent" x1="0%" y1="0%" x2="100%" y2="0%">
      <stop offset="0%" style="stop-color:#6366f1;stop-opacity:1" />
      <stop offset="100%" style="stop-color:#8b5cf6;stop-opacity:1" />
    </linearGradient>
    <radialGradient id="areaGlow" cx="50%" cy="50%" r="50%">
      <stop offset="0%" style="stop-color:#6366f1;stop-opacity:0.3" />
      <stop offset="70%" style="stop-color:#6366f1;stop-opacity:0.1" />
      <stop offset="100%" style="stop-color:#6366f1;stop-opacity:0" />
    </radialGradient>
  </defs>
  <rect width="640" height="360" fill="url(#areaBg)"/>

  <!-- Grid pattern for map feel -->
  <g stroke="#6366f1" stroke-width="0.5" opacity="0.15">
    <line x1="0" y1="60" x2="640" y2="60"/>
    <line x1="0" y1="120" x2="640" y2="120"/>
    <line x1="0" y1="180" x2="640" y2="180"/>
    <line x1="0" y1="240" x2="640" y2="240"/>
    <line x1="0" y1="300" x2="640" y2="300"/>
    <line x1="106" y1="0" x2="106" y2="360"/>
    <line x1="213" y1="0" x2="213" y2="360"/>
    <line x1="320" y1="0" x2="320" y2="360"/>
    <line x1="426" y1="0" x2="426" y2="360"/>
    <line x1="533" y1="0" x2="533" y2="360"/>
  </g>

  <!-- Roads -->
  <g stroke="#374151" stroke-width="6" stroke-linecap="round">
    <line x1="50" y1="180" x2="590" y2="180"/>
    <line x1="320" y1="30" x2="320" y2="330"/>
    <line x1="100" y1="80" x2="540" y2="280"/>
    <line x1="540" y1="80" x2="100" y2="280"/>
  </g>

  <!-- Service area circle -->
  <circle cx="320" cy="165" r="120" fill="url(#areaGlow)"/>
  <circle cx="320" cy="165" r="120" fill="none" stroke="url(#areaAccent)" stroke-width="3" stroke-dasharray="15,10" opacity="0.8"/>

  <!-- Center location pin -->
  <g transform="translate(320, 145)">
    <ellipse cx="0" cy="25" rx="10" ry="4" fill="#6366f1" opacity="0.3"/>
    <path d="M0 -20 C-13 -20 -20 -7 -20 7 C-20 20 0 35 0 35 C0 35 20 20 20 7 C20 -7 13 -20 0 -20 Z" fill="url(#areaAccent)"/>
    <circle cx="0" cy="-3" r="7" fill="#1a1a2e"/>
  </g>

  <text x="320" y="320" font-family="system-ui, sans-serif" font-size="14" fill="#a5b4fc" text-anchor="middle" opacity="0.7">Service Area - Replace with Google Maps screenshot</text>
</svg>